<mxfile host="65bd71144e">
    <diagram id="rvdW6TEaZRMjo0KrWeiR" name="Страница 1">
        <mxGraphModel dx="1413" dy="1082" grid="1" gridSize="10" guides="1" tooltips="1" connect="1" arrows="1" fold="1" page="1" pageScale="1" pageWidth="827" pageHeight="1169" math="0" shadow="0">
            <root>
                <mxCell id="0"/>
                <mxCell id="1" parent="0"/>
                <mxCell id="104" value="&lt;b&gt;transformCoordinates&lt;/b&gt;" style="shape=umlFrame;whiteSpace=wrap;html=1;width=160;height=30;boundedLbl=1;verticalAlign=middle;align=left;spacingLeft=5;gradientColor=none;swimlaneFillColor=none;strokeColor=default;shadow=0;sketch=0;opacity=50;" vertex="1" parent="1">
                    <mxGeometry x="40" y="12" width="750" height="168" as="geometry"/>
                </mxCell>
                <mxCell id="122" value="x[], y[] - отфильтрованные и отсортированные массивы начальных ОТНОСИТЕЛЬНЫХ координат вершин исходного полигона" style="text;strokeColor=none;fillColor=none;align=left;verticalAlign=top;spacingLeft=4;spacingRight=4;overflow=hidden;rotatable=0;points=[[0,0.5],[1,0.5]];portConstraint=eastwest;" vertex="1" parent="1">
                    <mxGeometry x="50" y="49" width="720" height="20" as="geometry"/>
                </mxCell>
                <mxCell id="123" value="xMoveDelta[], yMoveDelta[] = 0, 0 - приращения (дельты) координат учёта перемещения" style="text;strokeColor=none;fillColor=none;align=left;verticalAlign=top;spacingLeft=4;spacingRight=4;overflow=hidden;rotatable=0;points=[[0,0.5],[1,0.5]];portConstraint=eastwest;" vertex="1" parent="1">
                    <mxGeometry x="50" y="110" width="720" height="20" as="geometry"/>
                </mxCell>
                <mxCell id="124" value="xRotateDelta[], yRotateDelta[] = 0, 0 - приращения (дельты) координат учёта поворота" style="text;strokeColor=none;fillColor=none;align=left;verticalAlign=top;spacingLeft=4;spacingRight=4;overflow=hidden;rotatable=0;points=[[0,0.5],[1,0.5]];portConstraint=eastwest;" vertex="1" parent="1">
                    <mxGeometry x="50" y="90" width="720" height="20" as="geometry"/>
                </mxCell>
                <mxCell id="125" value="angleToRotateInRadians - угол поворота (радианы)" style="text;strokeColor=none;fillColor=none;align=left;verticalAlign=top;spacingLeft=4;spacingRight=4;overflow=hidden;rotatable=0;points=[[0,0.5],[1,0.5]];portConstraint=eastwest;" vertex="1" parent="1">
                    <mxGeometry x="50" y="130" width="720" height="20" as="geometry"/>
                </mxCell>
                <mxCell id="127" value="newPointToMoveX, newPointToMoveY - координаты X и Y целевой точки для перемешения" style="text;strokeColor=none;fillColor=none;align=left;verticalAlign=top;spacingLeft=4;spacingRight=4;overflow=hidden;rotatable=0;points=[[0,0.5],[1,0.5]];portConstraint=eastwest;" vertex="1" parent="1">
                    <mxGeometry x="50" y="150" width="720" height="20" as="geometry"/>
                </mxCell>
                <mxCell id="128" value="xInitial, yInitial = 0 - &quot;Центр масс&quot; - начальные усреднённые X и Y полигона" style="text;strokeColor=none;fillColor=none;align=left;verticalAlign=top;spacingLeft=4;spacingRight=4;overflow=hidden;rotatable=0;points=[[0,0.5],[1,0.5]];portConstraint=eastwest;" vertex="1" parent="1">
                    <mxGeometry x="50" y="70" width="720" height="20" as="geometry"/>
                </mxCell>
                <mxCell id="155" value="" style="group" vertex="1" connectable="0" parent="1">
                    <mxGeometry x="40" y="200" width="190" height="210" as="geometry"/>
                </mxCell>
                <mxCell id="111" value="&lt;p style=&quot;margin: 0px ; margin-top: 4px ; text-align: center&quot;&gt;&lt;b&gt;&amp;nbsp;isTextEntered ()=&amp;gt;{}&lt;/b&gt;&lt;/p&gt;" style="verticalAlign=top;align=left;overflow=fill;fontSize=12;fontFamily=Helvetica;html=1;" vertex="1" parent="155">
                    <mxGeometry width="190" height="210" as="geometry"/>
                </mxCell>
                <mxCell id="112" value="" style="line;strokeWidth=1;fillColor=none;align=left;verticalAlign=middle;spacingTop=-1;spacingLeft=3;spacingRight=3;rotatable=0;labelPosition=right;points=[];portConstraint=eastwest;" vertex="1" parent="155">
                    <mxGeometry y="20" width="190" height="20" as="geometry"/>
                </mxCell>
                <mxCell id="114" value=" item: attribute" style="text;strokeColor=none;fillColor=none;align=center;verticalAlign=top;spacingLeft=4;spacingRight=4;overflow=hidden;rotatable=0;points=[[0,0.5],[1,0.5]];portConstraint=eastwest;" vertex="1" parent="155">
                    <mxGeometry x="45" y="30" width="100" height="20" as="geometry"/>
                </mxCell>
                <mxCell id="119" value=" item: attribute" style="text;strokeColor=none;fillColor=none;align=center;verticalAlign=top;spacingLeft=4;spacingRight=4;overflow=hidden;rotatable=0;points=[[0,0.5],[1,0.5]];portConstraint=eastwest;" vertex="1" parent="155">
                    <mxGeometry x="45" y="50" width="100" height="20" as="geometry"/>
                </mxCell>
                <mxCell id="120" value=" item: attribute" style="text;strokeColor=none;fillColor=none;align=center;verticalAlign=top;spacingLeft=4;spacingRight=4;overflow=hidden;rotatable=0;points=[[0,0.5],[1,0.5]];portConstraint=eastwest;" vertex="1" parent="155">
                    <mxGeometry x="45" y="70" width="100" height="20" as="geometry"/>
                </mxCell>
                <mxCell id="121" value=" item: attribute" style="text;strokeColor=none;fillColor=none;align=center;verticalAlign=top;spacingLeft=4;spacingRight=4;overflow=hidden;rotatable=0;points=[[0,0.5],[1,0.5]];portConstraint=eastwest;" vertex="1" parent="155">
                    <mxGeometry x="45" y="90" width="100" height="20" as="geometry"/>
                </mxCell>
                <mxCell id="129" value="" style="line;strokeWidth=1;fillColor=none;align=left;verticalAlign=middle;spacingTop=-1;spacingLeft=3;spacingRight=3;rotatable=0;labelPosition=right;points=[];portConstraint=eastwest;shadow=0;sketch=0;opacity=50;" vertex="1" parent="155">
                    <mxGeometry y="110" width="190" height="20" as="geometry"/>
                </mxCell>
                <mxCell id="130" value="x[]" style="text;strokeColor=none;fillColor=none;align=center;verticalAlign=top;spacingLeft=4;spacingRight=4;overflow=hidden;rotatable=0;points=[[0,0.5],[1,0.5]];portConstraint=eastwest;" vertex="1" parent="155">
                    <mxGeometry x="45" y="120" width="100" height="20" as="geometry"/>
                </mxCell>
                <mxCell id="131" value="y[]" style="text;strokeColor=none;fillColor=none;align=center;verticalAlign=top;spacingLeft=4;spacingRight=4;overflow=hidden;rotatable=0;points=[[0,0.5],[1,0.5]];portConstraint=eastwest;" vertex="1" parent="155">
                    <mxGeometry x="45" y="140" width="100" height="20" as="geometry"/>
                </mxCell>
                <mxCell id="153" value="xInitial" style="text;strokeColor=none;fillColor=none;align=center;verticalAlign=top;spacingLeft=4;spacingRight=4;overflow=hidden;rotatable=0;points=[[0,0.5],[1,0.5]];portConstraint=eastwest;" vertex="1" parent="155">
                    <mxGeometry x="45" y="160" width="100" height="20" as="geometry"/>
                </mxCell>
                <mxCell id="154" value="yInitial" style="text;strokeColor=none;fillColor=none;align=center;verticalAlign=top;spacingLeft=4;spacingRight=4;overflow=hidden;rotatable=0;points=[[0,0.5],[1,0.5]];portConstraint=eastwest;" vertex="1" parent="155">
                    <mxGeometry x="45" y="180" width="100" height="20" as="geometry"/>
                </mxCell>
                <mxCell id="156" value="" style="group" vertex="1" connectable="0" parent="1">
                    <mxGeometry x="600" y="200" width="190" height="170" as="geometry"/>
                </mxCell>
                <mxCell id="134" value="&lt;p style=&quot;margin: 0px ; margin-top: 4px ; text-align: center&quot;&gt;&lt;b&gt;&amp;nbsp;isPointToMoveEntered ()=&amp;gt;{}&lt;/b&gt;&lt;/p&gt;" style="verticalAlign=top;align=left;overflow=fill;fontSize=12;fontFamily=Helvetica;html=1;" vertex="1" parent="156">
                    <mxGeometry width="190" height="170" as="geometry"/>
                </mxCell>
                <mxCell id="135" value="" style="line;strokeWidth=1;fillColor=none;align=left;verticalAlign=middle;spacingTop=-1;spacingLeft=3;spacingRight=3;rotatable=0;labelPosition=right;points=[];portConstraint=eastwest;" vertex="1" parent="156">
                    <mxGeometry y="20" width="190" height="20" as="geometry"/>
                </mxCell>
                <mxCell id="136" value=" item: attribute" style="text;strokeColor=none;fillColor=none;align=center;verticalAlign=top;spacingLeft=4;spacingRight=4;overflow=hidden;rotatable=0;points=[[0,0.5],[1,0.5]];portConstraint=eastwest;" vertex="1" parent="156">
                    <mxGeometry x="45" y="30" width="100" height="20" as="geometry"/>
                </mxCell>
                <mxCell id="137" value=" item: attribute" style="text;strokeColor=none;fillColor=none;align=center;verticalAlign=top;spacingLeft=4;spacingRight=4;overflow=hidden;rotatable=0;points=[[0,0.5],[1,0.5]];portConstraint=eastwest;" vertex="1" parent="156">
                    <mxGeometry x="45" y="50" width="100" height="20" as="geometry"/>
                </mxCell>
                <mxCell id="138" value=" item: attribute" style="text;strokeColor=none;fillColor=none;align=center;verticalAlign=top;spacingLeft=4;spacingRight=4;overflow=hidden;rotatable=0;points=[[0,0.5],[1,0.5]];portConstraint=eastwest;" vertex="1" parent="156">
                    <mxGeometry x="45" y="70" width="100" height="20" as="geometry"/>
                </mxCell>
                <mxCell id="139" value=" item: attribute" style="text;strokeColor=none;fillColor=none;align=center;verticalAlign=top;spacingLeft=4;spacingRight=4;overflow=hidden;rotatable=0;points=[[0,0.5],[1,0.5]];portConstraint=eastwest;" vertex="1" parent="156">
                    <mxGeometry x="45" y="90" width="100" height="20" as="geometry"/>
                </mxCell>
                <mxCell id="140" value="" style="line;strokeWidth=1;fillColor=none;align=left;verticalAlign=middle;spacingTop=-1;spacingLeft=3;spacingRight=3;rotatable=0;labelPosition=right;points=[];portConstraint=eastwest;shadow=0;sketch=0;opacity=50;" vertex="1" parent="156">
                    <mxGeometry y="110" width="190" height="20" as="geometry"/>
                </mxCell>
                <mxCell id="141" value="xMoveDelta[]" style="text;strokeColor=none;fillColor=none;align=center;verticalAlign=top;spacingLeft=4;spacingRight=4;overflow=hidden;rotatable=0;points=[[0,0.5],[1,0.5]];portConstraint=eastwest;" vertex="1" parent="156">
                    <mxGeometry x="45" y="120" width="100" height="20" as="geometry"/>
                </mxCell>
                <mxCell id="142" value="yMoveDelta[]" style="text;strokeColor=none;fillColor=none;align=center;verticalAlign=top;spacingLeft=4;spacingRight=4;overflow=hidden;rotatable=0;points=[[0,0.5],[1,0.5]];portConstraint=eastwest;" vertex="1" parent="156">
                    <mxGeometry x="45" y="140" width="100" height="20" as="geometry"/>
                </mxCell>
                <mxCell id="157" value="" style="group" vertex="1" connectable="0" parent="1">
                    <mxGeometry x="320" y="200" width="190" height="170" as="geometry"/>
                </mxCell>
                <mxCell id="144" value="&lt;p style=&quot;margin: 0px ; margin-top: 4px ; text-align: center&quot;&gt;&lt;b&gt;&amp;nbsp;isAngleToRotateEntered ()=&amp;gt;{}&lt;/b&gt;&lt;/p&gt;" style="verticalAlign=top;align=left;overflow=fill;fontSize=12;fontFamily=Helvetica;html=1;" vertex="1" parent="157">
                    <mxGeometry width="190" height="170" as="geometry"/>
                </mxCell>
                <mxCell id="145" value="" style="line;strokeWidth=1;fillColor=none;align=left;verticalAlign=middle;spacingTop=-1;spacingLeft=3;spacingRight=3;rotatable=0;labelPosition=right;points=[];portConstraint=eastwest;" vertex="1" parent="157">
                    <mxGeometry y="20" width="190" height="20" as="geometry"/>
                </mxCell>
                <mxCell id="146" value=" item: attribute" style="text;strokeColor=none;fillColor=none;align=center;verticalAlign=top;spacingLeft=4;spacingRight=4;overflow=hidden;rotatable=0;points=[[0,0.5],[1,0.5]];portConstraint=eastwest;" vertex="1" parent="157">
                    <mxGeometry x="44" y="30" width="100" height="20" as="geometry"/>
                </mxCell>
                <mxCell id="147" value=" item: attribute" style="text;strokeColor=none;fillColor=none;align=center;verticalAlign=top;spacingLeft=4;spacingRight=4;overflow=hidden;rotatable=0;points=[[0,0.5],[1,0.5]];portConstraint=eastwest;" vertex="1" parent="157">
                    <mxGeometry x="44" y="50" width="100" height="20" as="geometry"/>
                </mxCell>
                <mxCell id="148" value=" item: attribute" style="text;strokeColor=none;fillColor=none;align=center;verticalAlign=top;spacingLeft=4;spacingRight=4;overflow=hidden;rotatable=0;points=[[0,0.5],[1,0.5]];portConstraint=eastwest;" vertex="1" parent="157">
                    <mxGeometry x="44" y="70" width="100" height="20" as="geometry"/>
                </mxCell>
                <mxCell id="149" value=" item: attribute" style="text;strokeColor=none;fillColor=none;align=center;verticalAlign=top;spacingLeft=4;spacingRight=4;overflow=hidden;rotatable=0;points=[[0,0.5],[1,0.5]];portConstraint=eastwest;" vertex="1" parent="157">
                    <mxGeometry x="44" y="90" width="100" height="20" as="geometry"/>
                </mxCell>
                <mxCell id="150" value="" style="line;strokeWidth=1;fillColor=none;align=left;verticalAlign=middle;spacingTop=-1;spacingLeft=3;spacingRight=3;rotatable=0;labelPosition=right;points=[];portConstraint=eastwest;shadow=0;sketch=0;opacity=50;" vertex="1" parent="157">
                    <mxGeometry y="110" width="190" height="20" as="geometry"/>
                </mxCell>
                <mxCell id="151" value="xRotateDelta[]" style="text;strokeColor=none;fillColor=none;align=center;verticalAlign=top;spacingLeft=4;spacingRight=4;overflow=hidden;rotatable=0;points=[[0,0.5],[1,0.5]];portConstraint=eastwest;" vertex="1" parent="157">
                    <mxGeometry x="44" y="120" width="100" height="20" as="geometry"/>
                </mxCell>
                <mxCell id="152" value="yRotateDelta[]" style="text;strokeColor=none;fillColor=none;align=center;verticalAlign=top;spacingLeft=4;spacingRight=4;overflow=hidden;rotatable=0;points=[[0,0.5],[1,0.5]];portConstraint=eastwest;" vertex="1" parent="157">
                    <mxGeometry x="44" y="140" width="100" height="20" as="geometry"/>
                </mxCell>
                <mxCell id="160" value="&lt;p style=&quot;margin: 0px ; margin-top: 4px ; text-align: center&quot;&gt;&lt;b&gt;&amp;nbsp;&lt;/b&gt;&lt;b&gt;outputTextField&lt;/b&gt;&lt;b&gt;&amp;nbsp;()=&amp;gt;{}&lt;/b&gt;&lt;/p&gt;" style="verticalAlign=top;align=left;overflow=fill;fontSize=12;fontFamily=Helvetica;html=1;" vertex="1" parent="1">
                    <mxGeometry x="160" y="480" width="510" height="110" as="geometry"/>
                </mxCell>
                <mxCell id="161" value="" style="line;strokeWidth=1;fillColor=none;align=left;verticalAlign=middle;spacingTop=-1;spacingLeft=3;spacingRight=3;rotatable=0;labelPosition=right;points=[];portConstraint=eastwest;" vertex="1" parent="1">
                    <mxGeometry x="160" y="500" width="510" height="20" as="geometry"/>
                </mxCell>
                <mxCell id="167" value="xInitial + x[] + xRotateDelta[] + xMoveDelta" style="text;strokeColor=none;fillColor=none;align=center;verticalAlign=top;spacingLeft=4;spacingRight=4;overflow=hidden;rotatable=0;points=[[0,0.5],[1,0.5]];portConstraint=eastwest;fontSize=18;fontStyle=1" vertex="1" parent="1">
                    <mxGeometry x="200" y="520" width="430" height="30" as="geometry"/>
                </mxCell>
                <mxCell id="169" value="yInitial + y[] + yRotateDelta[] + yMoveDelta" style="text;strokeColor=none;fillColor=none;align=center;verticalAlign=top;spacingLeft=4;spacingRight=4;overflow=hidden;rotatable=0;points=[[0,0.5],[1,0.5]];portConstraint=eastwest;fontSize=18;fontStyle=1" vertex="1" parent="1">
                    <mxGeometry x="200" y="550" width="430" height="30" as="geometry"/>
                </mxCell>
                <mxCell id="177" style="edgeStyle=orthogonalEdgeStyle;html=1;exitX=1;exitY=0.5;exitDx=0;exitDy=0;entryX=0.279;entryY=0.044;entryDx=0;entryDy=0;entryPerimeter=0;fontSize=18;" edge="1" parent="1" source="130" target="167">
                    <mxGeometry relative="1" as="geometry">
                        <Array as="points">
                            <mxPoint x="290" y="330"/>
                            <mxPoint x="290" y="430"/>
                            <mxPoint x="320" y="430"/>
                        </Array>
                    </mxGeometry>
                </mxCell>
                <mxCell id="178" style="edgeStyle=orthogonalEdgeStyle;html=1;exitX=1;exitY=0.5;exitDx=0;exitDy=0;entryX=0.143;entryY=0.044;entryDx=0;entryDy=0;entryPerimeter=0;fontSize=18;" edge="1" parent="1" source="153" target="167">
                    <mxGeometry relative="1" as="geometry">
                        <Array as="points">
                            <mxPoint x="261" y="370"/>
                            <mxPoint x="261" y="521"/>
                        </Array>
                    </mxGeometry>
                </mxCell>
                <mxCell id="179" style="edgeStyle=orthogonalEdgeStyle;html=1;exitX=0;exitY=0.5;exitDx=0;exitDy=0;fontSize=18;" edge="1" parent="1" source="151">
                    <mxGeometry relative="1" as="geometry">
                        <mxPoint x="414" y="520" as="targetPoint"/>
                    </mxGeometry>
                </mxCell>
                <mxCell id="180" style="edgeStyle=orthogonalEdgeStyle;html=1;exitX=0;exitY=0.5;exitDx=0;exitDy=0;entryX=0.845;entryY=-0.011;entryDx=0;entryDy=0;entryPerimeter=0;fontSize=18;" edge="1" parent="1" source="141" target="167">
                    <mxGeometry relative="1" as="geometry"/>
                </mxCell>
            </root>
        </mxGraphModel>
    </diagram>
</mxfile>